/* XPM */
static char *s380bcwEXai_png[] = {
/* columns rows colors chars-per-pixel */
"50 50 5 1 ",
"  c None",
". c #484800",
"X c #909000",
"o c #FCFC00",
"O c gray99",
/* pixels */
"                                                  ",
"                                                  ",
"                                                  ",
"                                                  ",
"                                                  ",
"                                                  ",
"                                                  ",
"                                                  ",
"                                                  ",
"                                                  ",
"                                                  ",
"                                                  ",
"                                                  ",
"                                                  ",
"                                                  ",
"                                                  ",
"                                                  ",
"                                                  ",
"                      Xooooo                      ",
"                    XooooOOOoo                    ",
"                   .ooo....oOOo                   ",
"                  .ooXX    ..oOo                  ",
"                  .oo        .Oo                  ",
"                 .ooX        .oOo                 ",
"                 .oo          .Oo                 ",
"                 .oo          .Oo                 ",
"                 .oO          .Oo                 ",
"                 .oO          .oo                 ",
"                 .XOo        .XoX                 ",
"                  .oO        Xoo                  ",
"                  .XoOo    XoooX                  ",
"                   .XoOOOooooo.                   ",
"                    ..XooooXX.                    ",
"                      ......                      ",
"                                                  ",
"                                                  ",
"                                                  ",
"                                                  ",
"                                                  ",
"                                                  ",
"                                                  ",
"                                                  ",
"                                                  ",
"                                                  ",
"                                                  ",
"                                                  ",
"                                                  ",
"                                                  ",
"                                                  ",
"                                                  "
};
