/* XPM */
static char *s38laIP34NE_png[] = {
/* columns rows colors chars-per-pixel */
"50 50 5 1 ",
"  c None",
". c #484800",
"X c #909000",
"o c #FCFC00",
"O c gray99",
/* pixels */
"                                                  ",
"                                                  ",
"                                                  ",
"                                                  ",
"                                                  ",
"                                                  ",
"                                                  ",
"                                                  ",
"                                                  ",
"                                                  ",
"                                                  ",
"                                                  ",
"                                                  ",
"                                                  ",
"                                                  ",
"                                                  ",
"                                                  ",
"                        oo                        ",
"                       oOOo                       ",
"                      XOOOOX                      ",
"                      XOOOOX                      ",
"                      XOOOOX                      ",
"                      XOOOOX                      ",
"                      XoOOoX                      ",
"                      XoOOoX                      ",
"                      .oooo.                      ",
"                      .oooo.                      ",
"                      .XooX.                      ",
"                      .XooX.                      ",
"                      .XXXX.                      ",
"                      .XXXX.                      ",
"                       .XX.                       ",
"                        ..                        ",
"                                                  ",
"                                                  ",
"                                                  ",
"                                                  ",
"                                                  ",
"                                                  ",
"                                                  ",
"                                                  ",
"                                                  ",
"                                                  ",
"                                                  ",
"                                                  ",
"                                                  ",
"                                                  ",
"                                                  ",
"                                                  ",
"                                                  "
};
