/* XPM */
static char *s38xdOATcHO_png[] = {
/* columns rows colors chars-per-pixel */
"50 50 203 2 ",
"   c None",
".  c #3A1D1D",
"X  c #351E1E",
"o  c #242424",
"O  c #2B2322",
"+  c #272729",
"@  c #2B2B2C",
"#  c #2F2B22",
"$  c #362725",
"%  c #3E312B",
"&  c #2E2E33",
"*  c #333336",
"=  c #34343B",
"-  c #3A383A",
";  c #481A1A",
":  c #551414",
">  c #5B1111",
",  c #680E0E",
"<  c #780808",
"1  c #721210",
"2  c #42381F",
"3  c #45352C",
"4  c #523B30",
"5  c #4E401D",
"6  c #5D4032",
"7  c #50442B",
"8  c #664636",
"9  c #7A4F3A",
"0  c #7F513B",
"q  c #764D16",
"w  c #3C3C44",
"e  c #3E3E4B",
"r  c #583F4F",
"t  c #7F3242",
"y  c gray26",
"u  c #4C4C4C",
"i  c #40404F",
"p  c #454555",
"a  c #4A4A5D",
"s  c #494955",
"d  c #585858",
"f  c #7A445A",
"g  c #606045",
"h  c #4E4E63",
"j  c #515166",
"k  c #54546C",
"l  c #5A566B",
"z  c #575770",
"x  c #5B5B74",
"c  c #5E5E7A",
"v  c #764E68",
"b  c #705F7E",
"n  c #646464",
"m  c #63637F",
"M  c #767676",
"N  c #716C78",
"B  c #870404",
"V  c #900000",
"C  c #960706",
"Z  c #841414",
"A  c #9B1919",
"S  c #9F1B02",
"D  c #B90000",
"F  c #A20000",
"G  c #881921",
"H  c #9C3927",
"J  c #9F2222",
"K  c #AA3D3D",
"L  c #A32B2B",
"P  c #C90000",
"I  c #C40000",
"U  c #DA0000",
"Y  c #E60000",
"T  c #FC0000",
"R  c #F50000",
"E  c #FC3300",
"W  c #875414",
"Q  c #876714",
"!  c #A97C0E",
"~  c #82533B",
"^  c #A94D33",
"/  c #AE5B3C",
"(  c #A5402B",
")  c #97762B",
"_  c #D97E06",
"`  c #FC7E00",
"'  c #C27A3A",
"]  c #803142",
"[  c #AD4242",
"{  c #B15152",
"}  c #AA6746",
"|  c #B46C48",
" . c #B56542",
".. c #996C63",
"X. c #886C74",
"o. c #846C78",
"O. c #A05C5A",
"+. c #C37B57",
"@. c #C47878",
"#. c #D49A07",
"$. c #C79109",
"%. c #F98B03",
"&. c #FC9000",
"*. c #E68A16",
"=. c #EA9408",
"-. c #F9AC00",
";. c #FCB400",
":. c #FCBB15",
">. c #E3A304",
",. c #C79B39",
"<. c #FCBF28",
"1. c #A58959",
"2. c #928478",
"3. c #BE8165",
"4. c #BC8572",
"5. c #D78F6B",
"6. c #C9957C",
"7. c #D9916D",
"8. c #E59D79",
"9. c #FDC947",
"0. c #646484",
"q. c #676789",
"w. c #6A6A8D",
"e. c #756C87",
"r. c #6C6C90",
"t. c #737295",
"y. c #7D7D93",
"u. c #767699",
"i. c #7A7A9D",
"p. c #78788E",
"a. c #7D7DA1",
"s. c #937D8C",
"d. c #868686",
"f. c #83839B",
"g. c #969699",
"h. c #BA8D83",
"j. c #A78E99",
"k. c #B3989F",
"l. c #B1A589",
"z. c #8282A4",
"x. c #8686AA",
"c. c #8B8BAD",
"v. c #8B88A4",
"b. c #9191A7",
"n. c #8E8EB2",
"m. c #9292B6",
"M. c #9696BA",
"N. c #9999BD",
"B. c #928EAF",
"V. c #A7A7A7",
"C. c #A8A8BE",
"Z. c gray",
"A. c #B9ACAF",
"S. c #CA8686",
"D. c #C89989",
"F. c #D59F9F",
"G. c #CAA787",
"H. c #D4AC98",
"J. c #CEB48A",
"K. c #F6AE8A",
"L. c #FCB490",
"P. c #F5AD89",
"I. c #DEB4B4",
"U. c #D2B4AD",
"Y. c #F4BCA7",
"T. c #E0B9B9",
"R. c #FEDD8A",
"E. c #FEDC87",
"W. c #E5CB9F",
"Q. c #CFC4BA",
"!. c #E5CBA3",
"~. c #9F9EC2",
"^. c #A5A5C9",
"/. c #AAAACD",
"(. c #A1A1C5",
"). c #B6B3CB",
"_. c #AEAED2",
"`. c #B1B1D5",
"'. c #B4B4D8",
"]. c #B9B9DD",
"[. c #BFBFE3",
"{. c #C3C3C3",
"}. c #C6C6D7",
"|. c #D1D1D1",
" X c #D2C6DD",
".X c #E6C7C3",
"XX c #EAD6CB",
"oX c #E5CBD4",
"OX c #FAEAD5",
"+X c #C5C5E9",
"@X c #C1C1E5",
"#X c #DBD9EC",
"$X c #D2D2F5",
"%X c #D6D6FA",
"&X c #D8D8FC",
"*X c #D9D7F7",
"=X c #CECEF0",
"-X c #E3D9E2",
";X c #ECEAED",
":X c #EBEBFC",
">X c #F3F3FB",
",X c #FBFBFB",
"<X c #F6F5F5",
/* pixels */
"                                                                                                    ",
"                                                                                                    ",
"                                    XXXX4.3.+..XXX                                                  ",
"              S.F.                U.5.5.&XoXL.7.5.U.        S.S.                                    ",
"              U.C K [           H.8.L.L.Y.Y.L.L.L.8.D..XK [ V I.                                    ",
"                ; V V A J L     6.K.L.L.L.L.L.L.L.L. .C V V                                         ",
"                Z.> V V V V V @.6.K.L.L.P.| | | | | / V V V V                                       ",
"              V V V V V V V V V ^ | | | ' ;.;.;.;.;.;.;.;.;.;.;.:.                                  ",
"                T.V V V V V V V V V V  .-.&.&.&.&.&.=.&.&.&.&.&.;.9.                                ",
"                .XA V V V V V F Y T T E -.&.&.&.&.&.u.+Xm.*.&.&.&.;.R.                              ",
"                S.[ V V V I P T T T T ;.&.&.&.&.&.&.r.m.a.=.&.&.&.;.R.                              ",
"                I.T.I.V U T D T T T D ;.&.&.&.&.&.&.t.[.M.*.&.&.&.;.R.                              ",
"                    { Y T T U I T T V ;.&.&.&.&.&.&.u.@XM.*.&.&.&.;.R.                              ",
"                    K R T T T P U T V ;.&.&.&.&.&.&.u.@XN.*.&.&.&.;.E.                              ",
"                  @.V R T T T P V V V ;.&.&.&.&.&.&.u.@XN.*.&.&.&.;.E.                              ",
"        u o r.r.z.'.`.'._.'.'.+X%X$X<X<X,X,X,X,X,X,X,X:X%X$X$X'.'.'.'.'._.g r.r.a o                 ",
"      M o = e.v.r.n.x.(.a.'.'.B.f.e.^.'.].&X>X,X&X&X'.`.v.v.c.^.'.'.m.N.a.r.r.e.u.= o               ",
"      d o r.h.#Xr.a.m.c.M.'./.s.-XH.r.'.].&X>X,X&X&X'.~...;X>Xr.'.'.^.n.M.r.r.3.}.w o V.            ",
"    Z.o o r.x.x.r.i.M.x.N.'./.s. XG.r.'.].&X>X,X&X&X'.~...h.D.r.'.'./.c.N.r.w.8 j.w o o             ",
"    - o z r.* & e n.z.^.i.'.'.B.s % ^.'.].&X>X,X&X&X'.[.N $ % ^.'.'.m.~.i.r.r.k @ o o o u           ",
"    o o c r.w.w.z.n.(.t.`.'.'.'.`._.'.'.].&X>X,X&X%X'.'.c.w.w.'.'.'.'.a._.r.r.r.r.w.@ o +           ",
"    o o c r.r.r.r.r.r.r.r.r.r.r.r.r.r.r.r.r.r.r.r.r.r.r.r.r.r.r.r.r.r.r.r.r.q.= a o o o @           ",
"    o h w.w.r.t.~.m.i.).).).`.+X&X#X#X=X*X,X,X<X;X;X$X&X&X$X/././.z.n.(.w.r.r.w.r.w.@ q.o u         ",
"  o o o o 3 | | 0 o 2 -.;.$.o @ U.:.#.o o Q ;.#.o o 3 | } % o 3 | | 8 o % | } o 8 3 o o o y         ",
"  o o o o | | 9 o 5 >.;.! o @ l.<.! o o Q ;.$.# o 6 | } 3 o 6 | | 8 o 4 | | 9 O ~ 3 o o o -         ",
"  o o i j X.X.j x 2.G.1.y.y.f.Q.J.y.y.b.W.!.A.V.b.U.U.A.f.y.k.k.k.x m j.X.X.j l o.l o j o -         ",
"  @ 0.w.r.r.r.r.r.r.u.r.i.i.u.u.u.i.i.z.a.i.i.v.z.z.a.i.u.u.i.i.i.r.r.u.r.r.w.w h & o * o y         ",
"  & r.M.`.$X>X>X%X+Xa.r.r.r.r.r.r./.`.$X&X,X:X%X`.r.r.r.r.r.r.r.r.r.r.r.r.r.r.w.r.w.@ q.o u         ",
"  o o h r.r.o o o o o o o o o o o o o o o o o o o o o o o o o o o o o o o o o o o o o o o u         ",
"  & w.M.i.+ + w.r.r.r.w.w.w.x o o o o o o o o 0.o o o o o o o o 0.o o o o o o o o z r.w.w.w.C.      ",
"  o @ k r.* i.7 '.c.0.+ w w * a o o o o o o o 0.o o o o o o o o q.o o o o o o o p r.m o w = e }.    ",
"  + k z.t.r.N.,.y.r.* e y.y.w p = o o o o o o h o o o o o o o o j o o o o o o o r r.o e f.p.* z     ",
"  + h 0.p r.r.w.) r.& w.o o m p = o o o o o o a h h h x g.y.h h h o o o o o o X ] r.o r.o @ j z     ",
"  o & & o G G * S f * = x x * p = o o o o o o 0.r.r.r.r.i.i.r.r.w.o o o o o o . t r.+ = c k @ k     ",
"    o o < O V >.V : x + @ + = a o o o o o o o 0.r.r.r.r.r.r.r.r.0.o o o o o o o : v w.o @ + p }.    ",
"    o , / V o B o o o q.r.r.x o o o o o o o o o o o o o o o o o o o o o o o o o o o 0.r.r.r.C.      ",
"    f ( | | V o o o o o o o o o o o + + o o o O O o o o o o o O O o o o + o o o o o o               ",
"  b o.| | / < o o o o o o o o o o o OXOX; E %.` T o o o o o o T ` %.W Q.OXo o o o o y               ",
"  { v O.^ , o o o o o o o o o o o o &.&.$ T T T U o o o o o o T T T Z _ &.o o o o o                 ",
"    ..: : o o o o o o o o o o o o o W W O Z Z Z : o o o o o o Z Z Z ; q W o o o o d.                ",
"        |.o o o o o o o o o o o o o o o o o o o o o o o o o o o o o o o o o o o M                   ",
"          + o o o o o o o o o o o o o o o o o o o o o o o o o o o o o o o o o o d.                  ",
"            o o o o o o o o o o o o o o o o o o o o o o o o o o o o o o o o o d                     ",
"              o o o o o o o o o o o o o o o o o o o o o o o o o o o o o o o -                       ",
"                * o o o o o o o o o o o o o o o o o o o o o o o o o o o o y                         ",
"                |.- o o o o o o o o o o o o o o o o o o o o o o o o o o n                           ",
"                  {.g.o o o o o o > o > O ; ; o > o > X . o o o o o n g.                            ",
"                      {.{.o o o o ; o V 1 H H 1 ^ < B O O o o o @ |.                                ",
"                            {.o o o o O . , 1 . C O O o o o o                                       ",
"                                    o o o o o o o o o N                                             "
};
