/* XPM */
static char *s38pZrfWvgu_png[] = {
/* columns rows colors chars-per-pixel */
"50 50 234 2 ",
"   c None",
".  c #1D1D1C",
"X  c #171816",
"o  c #0F171B",
"O  c #37191A",
"+  c #2E120F",
"@  c #20201F",
"#  c #3D2C05",
"$  c #181D26",
"%  c #1D2123",
"&  c #242424",
"*  c #2B2222",
"=  c #262629",
"-  c #292A2C",
";  c #2B2826",
":  c #342926",
">  c #2D2E33",
",  c #2D2F39",
"<  c #313136",
"1  c #33333B",
"2  c #3C3537",
"3  c #3C2F30",
"4  c #590705",
"5  c #441B1B",
"6  c #4B1717",
"7  c #541414",
"8  c #5D1111",
"9  c #51191C",
"0  c #6C0C0C",
"q  c #670707",
"w  c #7B0606",
"e  c #730A0A",
"r  c #700000",
"t  c #621112",
"y  c #70160F",
"u  c #4B391C",
"i  c #502303",
"p  c #66281C",
"a  c #781A22",
"s  c #46352D",
"d  c #563B33",
"f  c #4B3030",
"g  c #693F28",
"h  c #5B441B",
"j  c #755715",
"k  c #694B18",
"l  c #5E4032",
"z  c #534033",
"x  c #4F4225",
"c  c #624334",
"v  c #764D39",
"b  c #6C611A",
"n  c #363740",
"m  c #3A3B44",
"M  c #3E3E4C",
"N  c #363844",
"B  c #423D48",
"V  c #70394F",
"C  c #3D414F",
"Z  c #41414D",
"A  c #4B474B",
"S  c #444454",
"D  c #4B4B5C",
"F  c #4A4A56",
"G  c #5D5854",
"H  c #6D5351",
"J  c #4D4E63",
"K  c #54546C",
"L  c #595568",
"P  c #595973",
"I  c #5E5E7B",
"U  c #575771",
"Y  c #66586A",
"T  c #6F5D7B",
"R  c #60607D",
"E  c #676777",
"W  c #7E6D7B",
"Q  c #746759",
"!  c #850202",
"~  c #8C0000",
"^  c #8A0F0D",
"/  c #910000",
"(  c #970702",
")  c #871716",
"_  c #921511",
"`  c #AD0000",
"'  c #A40202",
"]  c #A51601",
"[  c #BB0B0D",
"{  c #942414",
"}  c #B73606",
"|  c #941F27",
" . c #83202C",
".. c #C40000",
"X. c #E80202",
"o. c #FD0000",
"O. c #F40001",
"+. c #EE1B00",
"@. c #D6341F",
"#. c #B14B03",
"$. c #8C6A12",
"%. c #AA7107",
"&. c #89573E",
"*. c #A94C32",
"=. c #A54B34",
"-. c #AB553A",
";. c #AE5235",
":. c #BF743E",
">. c #977629",
",. c #C35500",
"<. c #EB5402",
"1. c #F27C08",
"2. c #D47100",
"3. c #A23B46",
"4. c #8B5550",
"5. c #997B5D",
"6. c #8E6B4B",
"7. c #A56545",
"8. c #AB6747",
"9. c #B46C48",
"0. c #B36A47",
"q. c #BF714B",
"w. c #A67A59",
"e. c #B17255",
"r. c #856B74",
"t. c #927667",
"y. c #A16E60",
"u. c #A45965",
"i. c #C37A56",
"p. c #BB880B",
"a. c #DC8304",
"s. c #D29807",
"d. c #E68100",
"f. c #F88E01",
"g. c #FE9001",
"h. c #FF9A00",
"j. c #E48714",
"k. c #EF9712",
"l. c #DFA005",
"z. c #E9A704",
"x. c #FFAD00",
"c. c #F3A801",
"v. c #FEB500",
"b. c #FFBB00",
"n. c #FFA215",
"m. c #C49838",
"M. c #958A7C",
"N. c #B08E72",
"B. c #C79058",
"V. c #D48C69",
"C. c #C28B74",
"Z. c #E59D79",
"A. c #F98268",
"S. c #E9A07B",
"D. c #636383",
"F. c #6C6D87",
"G. c #666689",
"H. c #6A6A8C",
"J. c #756D86",
"K. c #78758B",
"L. c #6C6C90",
"P. c #686D9B",
"I. c #6C7198",
"U. c #717196",
"Y. c #7B7B92",
"T. c #757599",
"R. c #7A7A9E",
"E. c #7A7692",
"W. c #716E90",
"Q. c #7D7DA1",
"!. c #857589",
"~. c #9B7E85",
"^. c #B87D9E",
"/. c #89849B",
"(. c #9B8991",
"). c #AA8E95",
"_. c #AE9492",
"`. c #B9A793",
"'. c #8383A5",
"]. c #8686AA",
"[. c #8B8BAD",
"{. c #8988A6",
"}. c #8E8EB2",
"|. c #878CBA",
" X c #9394B6",
".X c #9596BA",
"XX c #9999BE",
"oX c #9E98B7",
"OX c #9594A9",
"+X c #A597A6",
"@X c #AD9CAB",
"#X c #A0A0A2",
"$X c #DE9F84",
"%X c #CDB389",
"&X c #EDA988",
"*X c #FCB38D",
"=X c #CFB5A9",
"-X c #F6BEA8",
";X c #E8CB97",
":X c #FFE28E",
">X c #D6C2A3",
",X c #ECC4BF",
"<X c #FFE3A0",
"1X c #9D9DC1",
"2X c #A3A2C4",
"3X c #A4A5CB",
"4X c #ABAACD",
"5X c #AAA7C7",
"6X c #ADADD1",
"7X c #ADB2DC",
"8X c #B2B2D6",
"9X c #B4B5D9",
"0X c #B9B9DD",
"qX c #B9B8DB",
"wX c #B8B6C8",
"eX c #BABCE3",
"rX c #ADB3E0",
"tX c #C0B5D6",
"yX c #D3D3CF",
"uX c #EDD0CE",
"iX c #C6C6EA",
"pX c #CDCDF2",
"aX c #D2D2F5",
"sX c #D6D6FB",
"dX c #DCDCFD",
"fX c #DAD9F8",
"gX c #CDCFF2",
"hX c #E4DFEE",
"jX c #DDE0FF",
"kX c #EDEDFC",
"lX c #ECEAF2",
"zX c #FAFAFC",
"xX c #F7F5F5",
"cX c #E9E4ED",
/* pixels */
"                                                                                                    ",
"                                    8.q.i.8.                                                        ",
"                4                 7.Z.-X-X&XB.i.                4 q                                 ",
"                  4 r   i       0.S.*XuXfX,X*X*Xe.            r q                                   ",
"                    0 / 0 ~   g V.w.7.$X-XC.H V.&X  q # 4 ~ / e 8 4 o                               ",
"                O ! ~ / / / ! -.S.H X 6.Z.l % s S.{ / ! ~ / / / e O                                 ",
"                  5 / / / / / / =.z o 6.Z.d % ; *./ / / / / / / / / ~                               ",
"                ~ w 7 / / / ~ / ~ { -.V.A.@.7.~ / / / / ~ 2.b.v.v.v.c.%.                            ",
"                    + ! / / / / ~ / 6 y X.^ w / / / / ~ #.c.x.g.g.k.n.c.                            ",
"                    / / / / ! e w t f D F m 3 w w w ~ ~ ,.f.g.j.N.7XyX5.v.                          ",
"                t 8 t t t 0 8 ^ d F.4XaXsXiX}.B 7 7 8 8 2.h.g.j.N.|.{.5.x.                          ",
"                          e ~ <.@.^.gXjXtXu.3. ./ / 0 0 2.h.g.j.N.rX5X5.x.                          ",
"                          / ~ ;.1.6.V | [ O.O.O.O.` / ( 1.h.g.j.N.rX5X5.x.                          ",
"                        ~ ` ` -.j.} ! ` o.o.o.o.o.o./ ( d.h.g.j.N.7X5Xw.x.                          ",
"                        / ` ` -.{ ! ..o.o.o.o.o.o.o.o.] d.h.g.j.5.P.J.w.x.                          ",
"      X . J L.].8X9X8X8X9X8XiXpXaXkXzXzXzXzXzXzXzXzXfXaXsXiX9X9X8X8X9X6XQ.L.G.>                     ",
"      @ > L E.L.R.2X[.'.9X9X/.{.!.oX9XiXdXkXzXsXpX9X4X!.E..X6X0X1X[.1XU.H.J.{.D -                   ",
"      . K (.@X].U.}. X.X9X3X).hX=X+X3XiXdXkXzXsXaX9XI.8.uX X}.0X4X X[.[.H.9.lXE - X                 ",
"    & @ K Q.Q.L.U.[. XXX9X3X).pX=X+X3XiXdXkXzXsXaX9XI.8.C.!..X0X6X.X].}.G.d _.L - &                 ",
"  . & . P J & M '.3X].'.9X9X{.D 2 /.0XiXdXkXzXsXpX9XpXA @ Y.9X0X1X].2XU.H.I 3 ; & & X               ",
"  & & D G.L.G.].2XT.XX4X9X9X8X6X6X8X8XiXdXkXzXsXpX9X0XT.G.XX9X9X9X1XT.1XH.L.H.U.1 & .               ",
"  & & D G.L.L.L.L.L.L.L.L.L.L.L.L.L.L.L.L.L.L.L.L.L.L.L.L.L.L.L.L.L.L.L.G.& R - & & .               ",
"  & < R W.H.'.].R.4X}.8X4X8XiXaXaXsXaXcXzXzXxXlXkXfXpXaXiXqXwXXXQ.{.5XG.H.G.H.U.< K Z X             ",
"& & % v 0.7.d & c q.7.; & d 8.7.s $ $.b.l.j = G <Xz.: $ $.z.c.j $ c q.7.s & s c : & & @             ",
"& & % v &.s & v q.7.d & l 0.7.: $ $.c.z.j , M.:Xz.u & k z.s.h % c 9.7.l & l 9.d ; & & &             ",
"& & - Y Y J L !.).r.F.Y.@X@X/.Y.Y.`.;X=X[.wXxX;X>XOXY.%X%X(.E.K.W ~.).J K r.r.U - S m .             ",
". P D.H.L.L.H.U.T.L.U.R.R.T.T.R.R.T.R.'.Q.R.'.'.R.R.R.R.T.R.R.T.L.U.R.L.G.< D.< & > - .             ",
". G.R.4X8X8X8XeXaXfXzXfXaX2XU.H.H.].2XeXfXkXkXaXiX'.L.L.L.L.L.L.L.L.L.L.L.G.L.U.< K Z X             ",
". & 1 1 P L.L.L.L.L.L.L.L.L.M = & & & & & & & & & & & & & & & & & & & & & & & & & & & &             ",
". D.R.3X8X8X8X8X8X8X9X8X8XI - & @ m G.K M R 1 H.P U U.n I L.H.S . & - m n & & @ R n < I K m U.L.G.  ",
"& > m Z G.Q.T.T.R.T.U.T.R.I - @ m G OX0XOXK.2Xx 9XG 2XR.D m m S M @ = n 1 & & @ R m X E }.D.D < Z K.",
"& J R /. X1X1X1XXXXX1X1XXXD.- X R.`.M.[.#XN.+Xm.{.B.W.H.m E {.L = & & < > & & & J , u Q T.K < Y.Y.F ",
"& D P K.[..XXX.X.X.X.XL.L.C 7 @ U P.6.6.J.t.H.F.>.H.L.H.P < . m S . > K K K.#XE K > < P T.P > > - T.",
"@ < M S F.Q.R.R.Q.R.T.H.1 O ! ! f f ) { a t a 2 ] f ) T n D R S & @ < U.L.Q.{.U.T.m & - J U - K P A ",
"  & & & = - & & - - & - & _ 0.] O b #.t k #.u z.e p.( 3 C < = M Z . < U.L.L.L.I.| 5 % & & m J & < R.",
"  & & & & & & & & & & * / k.:.K.N @ & & & & & & & & & & S G.U.F . & & & & & & & & & & & & - S U.H.  ",
"  I.) / / / / / / / ~ ( f.j.t.< & & & & & & & & & & & & & & - = & * ; & & & & & ;                   ",
"Y L.y.9.9.9.9.9.9.9.9.9.9.y.B = & & & & & & & & & & & & & X _.yXu.+.1.<.9 & & _ '                   ",
"4 H 4.=.*.*.*.*.*.*.*.*.&.D - & & & & & & & & & & & & & & $ %.a.} O.o.X.5 & & ^ (                   ",
"    7 7 7 7 7 7 7 7 7 7 & & & & & & & & & & & & & & & & & % h j p ) ) y * & & + +                   ",
"        & & & & & & & & & & & & & & & & & & & & & & & & & & & & & & & & & & &                       ",
"        & & & & & & & & & & & & & & & & & & & & & & & & & & & & & & & & & & .                       ",
"          & & & & & & & & & & & & & & & & & & & & & & & & & & & & & & & & &                         ",
"            & & & & & & & & & & & & & & & & & & & & & & & & & & & & & & &                           ",
"              . & & & & & & & & & & & & & & & & & & & & & & & & & & & &                             ",
"                . & & & & & & & & & & & & & & & & & & & & & & & & & &                               ",
"                  X X & & & & & 6 7 * O 7 * * 8 * * 8 * & & & & &                                   ",
"                        & & & & O 7 q { =.) ) *.w O 5 * & & & .                                     ",
"                            & & & & & 8 ^ 6 6 ^ * & & & &                                           ",
"                                  & & & & & & & & &                                                 "
};
