/* XPM */
static char *s27YCvnV4hn_png[] = {
/* columns rows colors chars-per-pixel */
"50 50 7 1 ",
"  c #305820",
". c #387820",
"X c #508838",
"o c #60A048",
"O c #78B048",
"+ c #98C848",
"@ c #F8F898",
/* pixels */
"oO.o+.+..XooXXO.OX o+.XX .oo. .XoO.o+.+..XooXXO.OX",
"X+.X+XXXoo+.XoXXX+.X+XXXoo+.XoXXX+.X+XXXoo+.XoXXX+",
"oO.XoXX.+XOXXo++oO.XoXX.+XOXXo++oO.XoXX.+XOXXo++oO",
"X+Xo+@X+X+.Xo+O.X+Xo+@X+X+.Xo+O.X+Xo+@X+X+.Xo+O.X+",
"X o+OXoOX++oXO.XX o+OXoOX++oXO.XX o+OXoOX++oXO.XX ",
"+XXO.X+XXX+.XXo@+XXO.X+XXX+.XXo@+XXO.X+XXX+.XXo@+X",
"O+X.o o. XO.+ X.O+X.o o. XO.+ X.O+X.o o. XO.+ X.O+",
".+XoOo++XOXXXXo+.+XoOo++XOXXXXo+.+XoOo++XOXXXXo+.+",
".OX+o++oXX+X++oX.OX+o++oXX+X++oX.OX+o++oXX+X++oX.O",
"XX+O.+OoX+OoXO+oXX+O.+OoX+OoXO+oXX+O.+OoX+OoXO+oXX",
"XO+..+oXXO.Xo.+XXO+..+oXXO.Xo.+XXO+..+oXXO.Xo.+XXO",
" oO.XoX@+XXXo.O. oO.XoX@+XXXo.O. oO.XoX@+XXXo.O. o",
"Xo.O++X.O+X +o.oXo.O++X.O+X +o.oXo.O++X.O+X +o.oXo",
"+oo+O.oo.OoXXoX++oo+O.oo.OoXXoX++oo+O.oo.OoXXoX++o",
"..X+.X+Xo+oXXo+O..X+.X+Xo+oXXo+O..X+.X+Xo+oXXo+O..",
"+.oO.+o XXXo.O+.+.oO.+o XXXo.O+.+.oO.+o XXXo.O+.+.",
"O+.o.+XXoX+oXoXXO+.o.+XXoX+oXoXXO+.o.+XXoX+oXoXXO+",
"X+.X+XXXoo+.XoXXX+.X+XXXoo+.XoXXX+.X+XXXoo+.XoXXX+",
"oO.XoXX.+XOXXo++oO.XoXX.+XOXXo++oO.XoXX.+XOXXo++oO",
"X+Xo+@X+X+.Xo+O.X+Xo+@X+X+.Xo+O.X+Xo+@X+X+.Xo+O.X+",
"X o+OXoOX++oXO.XX o+OXoOX++oXO.XX o+OXoOX++oXO.XX ",
"+XXO.X+XXX+.XXo@+XXO.X+XXX+.XXo@+XXO.X+XXX+.XXo@+X",
"O+X.o o. XO.+ X.O+X.o o. XO.+ X.O+X.o o. XO.+ X.O+",
".+XoOo++XOXXXXo+.+XoOo++XOXXXXo+.+XoOo++XOXXXXo+.+",
".OX+o++oXX+X++oX.OX+o++oXX+X++oX.OX+o++oXX+X++oX.O",
"XX+O.+OoX+OoXO+oXX+O.+OoX+OoXO+oXX+O.+OoX+OoXO+oXX",
"XO+..+oXXO.Xo.+XXO+..+oXXO.Xo.+XXO+..+oXXO.Xo.+XXO",
" oO.XoX@+XXXo.O. oO.XoX@+XXXo.O. oO.XoX@+XXXo.O. o",
"Xo.O++X.O+X +o.oXo.O++X.O+X +o.oXo.O++X.O+X +o.oXo",
"+oo+O.oo.OoXXoX++oo+O.oo.OoXXoX++oo+O.oo.OoXXoX++o",
"..X+.X+Xo+oXXo+O..X+.X+Xo+oXXo+O..X+.X+Xo+oXXo+O..",
"+.oO.+o XXXo.O+.+.oO.+o XXXo.O+.+.oO.+o XXXo.O+.+.",
"O+.o.+XXoX+oXoXXO+.o.+XXoX+oXoXXO+.o.+XXoX+oXoXXO+",
"X+.X+XXXoo+.XoXXX+.X+XXXoo+.XoXXX+.X+XXXoo+.XoXXX+",
"oO.XoXX.+XOXXo++oO.XoXX.+XOXXo++oO.XoXX.+XOXXo++oO",
"X+Xo+@X+X+.Xo+O.X+Xo+@X+X+.Xo+O.X+Xo+@X+X+.Xo+O.X+",
"X o+OXoOX++oXO.XX o+OXoOX++oXO.XX o+OXoOX++oXO.XX ",
"+XXO.X+XXX+.XXo@+XXO.X+XXX+.XXo@+XXO.X+XXX+.XXo@+X",
"O+X.o o. XO.+ X.O+X.o o. XO.+ X.O+X.o o. XO.+ X.O+",
".+XoOo++XOXXXXo+.+XoOo++XOXXXXo+.+XoOo++XOXXXXo+.+",
".OX+o++oXX+X++oX.OX+o++oXX+X++oX.OX+o++oXX+X++oX.O",
"XX+O.+OoX+OoXO+oXX+O.+OoX+OoXO+oXX+O.+OoX+OoXO+oXX",
"XO+..+oXXO.Xo.+XXO+..+oXXO.Xo.+XXO+..+oXXO.Xo.+XXO",
" oO.XoX@+XXXo.O. oO.XoX@+XXXo.O. oO.XoX@+XXXo.O. o",
"Xo.O++X.O+X +o.oXo.O++X.O+X +o.oXo.O++X.O+X +o.oXo",
"+oo+O.oo.OoXXoX++oo+O.oo.OoXXoX++oo+O.oo.OoXXoX++o",
"..X+.X+Xo+oXXo+O..X+.X+Xo+oXXo+O..X+.X+Xo+oXXo+O..",
"+.oO.+o XXXo.O+.+.oO.+o XXXo.O+.+.oO.+o XXXo.O+.+.",
"O+.o.+XXoX+oXoXXO+.o.+XXoX+oXoXXO+.o.+XXoX+oXoXXO+",
"X+.X+XXXoo+.XoXXX+.X+XXXoo+.XoXXX+.XX+o+ooX+oXXooX"
};
