/* XPM */
static char *s277F3AlP7Y_png[] = {
/* columns rows colors chars-per-pixel */
"50 50 18 1 ",
"  c #305020",
". c #305820",
"X c #106020",
"o c #306820",
"O c #387820",
"+ c #484838",
"@ c #686858",
"# c #508838",
"$ c #50B820",
"% c #60A048",
"& c #78B048",
"* c #808070",
"= c #98C848",
"- c #90D048",
"; c #A0A088",
": c #B8B890",
"> c #F8F898",
", c #D0D0B0",
/* pixels */
"O%O=##%#=%#%##&=O%O=##%#=%#%##&=O%O=##%#=%#%##&=O%",
"O#=###%%=O#%###=O#=###%%=O#%###=O#=###%%=O#%###=O#",
"O#%##O=#&##%==%&O#%##O=#&##%==%&O#%##O=#&##%==%&O#",
"#%=>#=#=O#%=&O#=#%=>#=#=O#%=&O#=#%=>#=#=O#%=&O#=#%",
"%=&#%&#==%#&O##.%=&#%&#==%#&O##.%=&#%&#==%#&O##.%=",
"#&O#=###=O##%>=##&O#=###=O##%>=##&O#=###=O##%>=##&",
"#O%.%O.#&O=.#O&=#O%.%O@@@++.#O&=#O%.%O.#&O=.#O&=#O",
"#%&%==#&####%=O=#%&%=@@***@+%=O=#%&%==#&####%=O=#%",
"#=%==%##=#==%#O&#=%@@*;;:***+#O&#=%==%##=#==%#O&#=",
"=&O=&%#=&%#&=%##=&@**:;;;;;**+##=&O=&%#=&%#&=%##=&",
"=OO=%##&O#%O=##&=@*@:;;:;;;;@@+&=OO=%##&O#%O=##&=O",
"&O#%#>=###%O&O.%&@:;**::***@;**+&O#%#>=###%O&O.%&O",
"O&==#O&=#.=%O%#%O@::;;**;;;;:;*@+&==#O&=#.=%O%#%O&",
"%=&O%%O&%##%#==%%@::;;;;;:;;;;*@@+&O%%O&%##%#==%%=",
"#=O#=#%=%##%=&OO#@;::::::::;:;**@+O#=#%=%##%=&OO#=",
"%&O=%.###%O&=O=O@:;::,::,::;;;*@@+O=%.###%O&=O=O%&",
"O%O=##%#=%#%##&=@:;:::::;:;;:;**++O=##%#=%#%##&=O%",
"O#=###%%=O#%###=@:;:,::,::;:;**@@+=###%%=O#%###=O#",
"O#%##O=#&##%==%*@;;::,,:::::;*o#**+##O=#&##%==%&O#",
"#%=>#=#=O#%=&O#@*@;;;:,,,::;*o*@**+>#=#=O#%=&O#=#%",
"%=&#%&#==%#&O##@;*;;:;:,,,;o+@@***++%&#==%#&O##.%=",
"#&O#=###=O##%>=@;;*;::;::,*+@+@*;+@@+###=O##%>=##&",
"#O%.%O.#&O=.#O&@;;;*::::,:*@@@*;@*@@+O.#&O=.#O&=#O",
"#%&%==#&####%=O@*;:;*:::::**o@;@**@#+=#&####%=O=#%",
"#=%==%##=#==%#@+@**;;;;:,:*@o*;#**@++%##=#==%#O&#=",
"=&O=&%#=&%#&=%@:;;:*;**,:;*@*+@**@@#+%#=&%#&=%##=&",
"=OO=%##&O#%O=#@:;;:::;;*,;*;;**@*@@o++#&O#%O=##&=O",
"&O#%#>=###%%&@*;;::;;;;:@@@++@***@++++=###%O&O.%&O",
"O&==#O&=#.=%O@@;::;;;;;;:@@#@*@*@+@#o+&=%.=%O%#%O&",
"%=&O%%O&%##%%@;@,:;*;;;;::@*@+@@**@@o+O&%##%#==%%=",
"#=O#=#%=%##%@*;:*,;;*;;;:;:#@*****@@#+%=%##%=&OO#=",
"%&O=%.###%O%@;;::*:;;;;;:;;**@@***@@++%##%O&=O=O%&",
"O%O=##%#=%#%@;;;::@:;;;*;;:@*@@**@*@@@+%=%#%##&=O%",
"O#=###%%=O#%+@:::::@*;;;;;:+*@@**@*@;++%#%#%###=O#",
"O#%##O=#&##%@;:%,:;;;*@;::,@;;@**@@;+++####%==%&O#",
"#%=>#=#=O#%%%;:%,:-%;*;**@@+@+;**@;+*@++&#%=&O#=#%",
"%=&#%&#==%&@-::%,-%;;;;*;:,@*@+@+@+@@#@+#%#&O##.%=",
"#&O#=###=O#@%-;::%:;;;;;;;:o@@**@+@*+@@+####%>=##&",
"#O%.%O.#&O%%#-;&%:,;;;;*;;:+@@@@+@***@++o#=.#O&=#O",
"#%&%==#&####%#%&%&&;,;%;;:,o@@*##++@@@+oo###%=O=#%",
"#=%==%##=#%#&--&#&;@@:%;%,,@++@@#@@+++ooo#==%#O&#=",
"=&O=&%#=&%#%&&-##&-;;@*%,,:+@*@@*#@@@+oo#%#&=%##=&",
"=OO=%##&O#%%%&&%#&-::;%;*@++**@++%@++ooo%#%O=##&=O",
"&O#%#>=###%&#&&--##-:%:,:;***@@@@%+oo#oo##%O&O.%&O",
"O&==#O&=#.#%%%&&o##&-%::,:*%@@+@+###ooo##%=%O%#%O&",
"%=&O%%O&%##%#%#%%o##%%:-::%@@+++oooooo%#%##%#==%%=",
"#=O#=#%=%##%#%#%##%oo%&-:&%++%ooooooo#%&%##%=&OO#=",
"%&O=%.###%%&##%&%#%#%###&@+  ooooo%#%####%O&=O=O%&",
"O%O=##%#=%#%##&##%#%##%#%%#%##&##%#%##%#%%#%##&=O%",
"O#=###%%$$X$###=O#=###%%=O#%###=O#=###%%$$X$###=O#"
};
