/* XPM */
static char *s385s5t06sm_png[] = {
/* columns rows colors chars-per-pixel */
"50 50 15 1 ",
"  c None",
". c gray14",
"X c #900000",
"o c #FC0000",
"O c #B46C48",
"+ c #009000",
"@ c #242490",
"# c #6C6C90",
"$ c #2448D8",
"% c #6C6CFC",
"& c #FCB490",
"* c #B4B4D8",
"= c #F6F6FF",
"- c gray99",
"; c white",
/* pixels */
"                                                  ",
"                                                  ",
"                                                  ",
"     @@$$                   %                     ",
"       @@$$$$               $%                    ",
"         @@@$$$$            $%                    ",
"           @@@$%%%$         @$%                   ",
"            @@@@$%%%$       @$%                   ",
"             @@@@$%%%%$     @$%%                  ",
"              @@@@$%%%%$$  @@$$%                  ",
"          $    @@@$$%%%%$$@@@$$%                  ",
"          $$    @@@$$%%%%%$@@@$%                  ",
"           $$   @@@$$$%@@$$$$@@$$                 ",
"           $$$$  @@@$$@OO@@$$$@@$                 ",
"           $$$$$  @@@@@O&OO@%$$@$                 ",
"            $$$$$$$$$$$@&&&O$%%$@                 ",
"            @$$$$$$$$$$@&&$$%*%$$                 ",
"             @$$$$$$$$$$$$$%%$$%$                 ",
"              @@$$$$$$%%$$%@@@$$%$                ",
"               @@$$$$%-%$$@$*@$$$$                ",
"          $$     @@$$$%%$$$$-*@$$$                ",
"          @$$$$$@@@@$$$$$$$$--*@$$                ",
"           @@%%%%%%$$$$$$$$$---*+                 ",
"             @@$%%%%%%$OOO$$*--*+                 ",
"               @@$$$$$$$O&&&&*--&#..              ",
"                 @@$$$$$OO&&&&&&&..#              ",
"               $%$$$$$$$$O&.&&&&&                 ",
"              $$$$@@@@@O$OO&O&&&                  ",
"              $$@@$@@@O&OOOO-  *                  ",
"              $@ $@@@@O&OO- --- *                 ",
"                $$@@@@O&&-#-----*                 ",
"                $@@@@$%O& #-----*                 ",
"                $@ @@@$OO*  --- *                 ",
"                    @@@OOO##   *#                 ",
"                    @@@$OO@*####                  ",
"              ...   @$$$ @@@                      ",
"            ..XX.##@@$$   @@$                     ",
"          ..XXXX-#*@@$     @@$                    ",
"         .#*Xoo-#-@@$$      @$                    ",
"        .X**=oo- -@$$       @@$                   ",
"       .Xoo --oo-            @       oo oo        ",
"      .Xoooo--ooX           *** Xo  oooXXX..      ",
"      .ooooo---X            .**.oo  XXXX....      ",
"     .Xoo-oooX              ...XXX**XX.....       ",
"     .ooooooX                .XXXX**.....         ",
"     XoooXX                  .XXXX*.....          ",
"      XXX                    .XX......            ",
"                             .......              ",
"                                                  ",
"                                                  "
};
