/* XPM */
static char *s38r12uT3n1_png[] = {
/* columns rows colors chars-per-pixel */
"50 50 13 1 ",
"  c None",
". c gray14",
"X c #900000",
"o c #FC0000",
"O c #B46C48",
"+ c #242490",
"@ c #6C6C90",
"# c #2448D8",
"$ c #6C6CFC",
"% c #FCB490",
"& c #B4B4D8",
"* c #D8D8FC",
"= c gray99",
/* pixels */
"                                                  ",
"                                                  ",
"                                                  ",
"                                                  ",
"                                                  ",
"                                                  ",
"                                                  ",
"                                                  ",
"                                                  ",
"                 #####                            ",
"             ############                         ",
"           ++++#####++#####    +                  ",
"             +++++##+%+#$#### ++                  ",
"                ++++O%%+#$$###++                  ",
"                 +#+O%%%#$$$###+                  ",
"                ###+OO##$$$$$###                  ",
"             ##########$$$&$$###                  ",
"           #######$$$$$$+++#$$###                 ",
"          #########$=$#++*=&$###$                 ",
"         #+++++++###$##+&===&+##&                 ",
"         ++++++++++####+&===&.+.&                 ",
"              +++++#####&===&.=.&                 ",
"                ++++####$===&@=@&                 ",
"               ##++++#O%%&====O&..                ",
"              ####+++O%=%%%**%%..@                ",
"             ###+++++O%%O%%%%%%O                  ",
"            ##++++++++OO%O%%%OO                   ",
"            #+    ++++++OOOOO                     ",
"                 +++++++++++                      ",
"                 +++O%%+#O%=O==&&                 ",
"                +++O%%+#O%===@===&                ",
"                + O@&*==O%%=%@=&@=                ",
"                  @&**===O%%%@&@==                ",
"                 +@**====&O%#@@&&&                ",
"                  @&====&&## @&&@                 ",
"                  @@&=&=&@##  @@                  ",
"                   @&=&&@ +#                      ",
"                    @@@@  +#                      ",
"                    ++#  @+#                      ",
"                   @&+# @*+#&                     ",
"                  @&&==&@&==&                     ",
"                  @@@&&@@@&&@                     ",
"                  .XooX.X&&XXoo                   ",
"                 .X&====.XXXoo*==o                ",
"                 .&ooooX&XXXX&&*oo=o              ",
"                 .XXoo=oX.XX@@&Xooooo             ",
"                 .XXXoooX.XX@@@XXXXooo            ",
"                  ....................            ",
"                                                  ",
"                                                  "
};
