/* XPM */
static char *s38UW1cXAly_png[] = {
/* columns rows colors chars-per-pixel */
"50 50 15 1 ",
"  c None",
". c gray14",
"X c #900000",
"o c #FC0000",
"O c #B46C48",
"+ c #009000",
"@ c #242490",
"# c #6C6C90",
"$ c #2448D8",
"% c #6C6CFC",
"& c #FCB490",
"* c #B4B4D8",
"= c #D8D8FC",
"- c gray99",
"; c white",
/* pixels */
"                                                  ",
"                       @$                         ",
"                        @%                        ",
"      $$$$$$            @@%                       ",
"    @@@@@@$$$$$$$        @@%%                     ",
"        @@@@@$$%%$$$$    @@@$                     ",
"          @@@@@$$%%%%$$   @@@%                    ",
"            @@@@@$$%%%%$$$@@@$%                   ",
"              @@@@$$$%%%%$$@@@$                   ",
"        $      @@@@@@@$%%%%$@@$%                  ",
"        @$      @@@O&@$@$$$$$@@%                  ",
"        @$$$     @@@&&&@@$%$$$@$                  ",
"         @$$$$   $$@O&&&$$$%%$$$                  ",
"         @$$$$$$$$$@OO$$%%%%%%$$@                 ",
"          @$$$$$$$$$$$$%%%*%%%%$$                 ",
"           @$$$$$$$%%%%%@@$$%%%%$                 ",
"            @@$$$$$%-%$@**@$$%%$@                 ",
"              @@$$$$%$$@*-*@@$$@*                 ",
"         @$     @@$$$$$@*--**@@@*                 ",
"          @$$    $$$$$$$$---*+-+*                 ",
"           @$$$$$$@$OOO$%%--*+-+*                 ",
"            @@$$$$@@O&&&&**---O*..                ",
"             @@@$$@@@O&-&&&==&&..#                ",
"               @@@@@@O&&&&&&&&&O                  ",
"                 @@@@@OO&&&&&OO#                  ",
"                @  $$@@@OOOOO@@@#*#               ",
"                 @@@$O&OOO****@#=**#              ",
"                 @@@@OO&&*-----#==**#             ",
"                @ @@@@OO*--#----#-=*#             ",
"                 @@@@@@O#**--#-*#==*#             ",
"                 @@@@@@OO###*-*####*#             ",
"                  @@@@@@OOO#**##OO                ",
"                   @$@@@$$ ####                   ",
"                   @$@@$$                         ",
"                  @$$@@$                          ",
"               #@@$$-@$$                          ",
"              #*@$@-@$$                           ",
"             #*-#$@#@$                            ",
"             #**-#  ##                            ",
"             X* *--#--                            ",
"            .XX - X # #                           ",
"            .XXXXXX# #                            ",
"            .XXoooXXXXX                           ",
"            .XX*   X- *                           ",
"            .X***---#- *                          ",
"             .*XooooXXoooX                        ",
"             .XXXooo-oXo-oX                       ",
"              ..XXooooXoooX                       ",
"                ..........                        ",
"                                                  "
};
