/* XPM */
static char *s38LcD2D8DW_png[] = {
/* columns rows colors chars-per-pixel */
"50 50 14 1 ",
"  c None",
". c gray14",
"X c #0D4807",
"o c #900000",
"O c #FC0000",
"+ c #B46C48",
"@ c #242490",
"# c #6C6C90",
"$ c #2448D8",
"% c #6C6CFC",
"& c #FCB490",
"* c #B4B4D8",
"= c #D8D8FC",
"- c gray99",
/* pixels */
"                                                  ",
"                                                  ",
"                                                  ",
"                                                  ",
"                                                  ",
"                                                  ",
"                                                  ",
"                                                  ",
"                                                  ",
"                                                  ",
"                                                  ",
"             $$$$$$$$$$                           ",
"           $$$$$$$$%%%%$$$$                       ",
"             @@@@@$$$%%%$@@$$                     ",
"               @@@@@$$$$@@&@$$$                   ",
"                 @@@@@$@@&&@%$$$                  ",
"                  $$$$$@&&&&$%%$                  ",
"               $$$$$$$$@&&$$%*%$$                 ",
"             $$$%%%$$$$$$$$%%$$%$                 ",
"            $$%%$$$$$$%%$$%@$*%$%$                ",
"           $$$$$$$$$$%-%$$@$*--%$$                ",
"           $$@@@@@@$$$%%$$$$---*$$                ",
"          $@@@@@@@@@$$$$$$$$----@$                ",
"               $@@$$$$$$$$$$---*.                 ",
"              $@@$$$$$$$$$$$*--*.                 ",
"             $@@$$*$$$$$$$&&&*--&#..              ",
"             $@@$%$$$$$$$&&-&&&&&..#              ",
"               $%$$$$$$$$+&.&&&&&                 ",
"              $$$$@@@@@+$++&+&&&                  ",
"              $$@@$@@@+&++++X==*                  ",
"              $@X$@@@@+&++X=---=*                 ",
"                $$@@@@+&&-#-----*                 ",
"                $@@@@$%+&=#-----*                 ",
"                $@ @@@$++*==---=*                 ",
"                    @@@+++##===*#                 ",
"                    @@@$++@*####                  ",
"              ...   @$$$ @@@                      ",
"            ..oo.##@@$$   @@$                     ",
"          ..oooo #*@@$     @@$                    ",
"         .#*oOO # @@$$      @$                    ",
"        .o** OO   @$$       @@$                   ",
"       .oOO   OO             @       OO OO        ",
"      .oOOOO  OOo           *** oO  OOOooo..      ",
"      .OOOOO   o            .**.OO  oooo....      ",
"     .oOO-OOOo              ...ooo**oo.....       ",
"     .OOOOOOo                .oooo**.....         ",
"     oOOOoo                  .oooo*.....          ",
"      ooo                    .oo......            ",
"                             .......              ",
"                                                  "
};
