/* XPM */
static char *s38t556zTD8_png[] = {
/* columns rows colors chars-per-pixel */
"50 50 14 1 ",
"  c None",
". c gray14",
"X c #900000",
"o c #FC0000",
"O c #B46C48",
"+ c #242490",
"@ c #6C6C90",
"# c #2448D8",
"$ c #6C6CFC",
"% c #FCB490",
"& c #B4B4D8",
"* c #D8D8FC",
"= c gray99",
"- c white",
/* pixels */
"                                                  ",
"                                                  ",
"                                                  ",
"                                                  ",
"                                                  ",
"                                                  ",
"                                                  ",
"                                                  ",
"                                                  ",
"                                                  ",
"              #####                               ",
"          ############                            ",
"        ++++#####++#####    +                     ",
"          +++++##+%+#$#### ++                     ",
"             ++++O%%+#$$###++                     ",
"              +#+O%%%#$$$###+                     ",
"             ###+OO##$$*$$###                     ",
"          ##########$$##$$$##                     ",
"        #######$$$$$$+&&&$$###                    ",
"       #########$=$$+@*==#$$##                    ",
"      #+++++++###$#$+&&&=&#$#+                    ",
"      ++++++++++####+&.&=&#$$+                    ",
"           +++++#####&.@==&++&                    ",
"             ++++####$.&===@.@                    ",
"            ##++++#O%%&====O&..                   ",
"           ####+++O%=%%%**%%..@                   ",
"          ###+++++O%%%%%%%%%O                     ",
"         ##++++++++OOOO%%%OO                      ",
"         #+    ++++++OOOOO                        ",
"              +++++++++++                         ",
"              OOO%%O+#O% OO                       ",
"            OO%%%OO+#O%   O%O                     ",
"            O%OOO+++#O%% %OO%O                    ",
"            OO%%O@++#O%%%%O%O                     ",
"            @@O%O&+++#O%%#%O                      ",
"           @ @@O& @+++###@&                       ",
"           @&    @@++#+#+@@&                      ",
"            @@& @   +#=+##                        ",
"              @@    +#==+#                        ",
"                    +#==+##                       ",
"                  @&+#=@@+#&                      ",
"                 @&&==&@&=&@                      ",
"                 @@@&&@@@@&&@                     ",
"                 .XooX.@@&&@Xoo                   ",
"                .X&====.XXXXoo   o                ",
"                .&ooooX&XXXXX&& oo o              ",
"                .XXoo=oX.XXX@@&Xooooo             ",
"                .XXXoooX.XXX@@@XXXXooo            ",
"                 .....................            ",
"                                                  "
};
