/* XPM */
static char *_8e24abec95743b7bb249e4366389bd7ED0Q3Fe6CSYN1YgC[] = {
/* columns rows colors chars-per-pixel */
"50 50 216 2 ",
"   c None",
".  c #000001",
"X  c #02020B",
"o  c #010114",
"O  c #090716",
"+  c #0B0A13",
"@  c #00001C",
"#  c #0D0A1A",
"$  c #110F1B",
"%  c #0E131A",
"&  c #010124",
"*  c #0E0A22",
"=  c #00002D",
"-  c #0A082C",
";  c #110D2B",
":  c #120E25",
">  c #151323",
",  c #171629",
"<  c #030333",
"1  c #090739",
"2  c #0D0A3C",
"3  c #080637",
"4  c #140F33",
"5  c #100C3F",
"6  c #1E1A33",
"7  c #17123A",
"8  c #211E37",
"9  c #26213E",
"0  c #192B35",
"q  c #120D41",
"w  c #161145",
"e  c #1A1444",
"r  c #1E174E",
"t  c #1F1849",
"y  c #1F1950",
"u  c #231B54",
"i  c #271F59",
"p  c #1D3A42",
"a  c #2A2546",
"s  c #292346",
"d  c #2C2453",
"f  c #2C245D",
"g  c #242058",
"h  c #322D55",
"j  c #38325D",
"k  c #332B65",
"l  c #342C69",
"z  c #312765",
"x  c #3C3564",
"c  c #3A316D",
"v  c #3A3C65",
"b  c #3C3372",
"n  c #373A74",
"m  c #342A69",
"M  c #423A6C",
"N  c #443B7C",
"B  c #453B77",
"V  c #3C4974",
"C  c #3B446C",
"Z  c #45427C",
"A  c #44517E",
"S  c #C8C878",
"D  c #4B3E84",
"F  c #3B4C81",
"G  c #3C5086",
"H  c #4E4685",
"J  c #4C4586",
"K  c #52458B",
"L  c #514B8B",
"P  c #544986",
"I  c #50538F",
"U  c #5C4E99",
"Y  c #584A94",
"T  c #5E529B",
"R  c #545A97",
"E  c #4E568E",
"W  c #61549D",
"Q  c #53669D",
"!  c #4C7999",
"~  c #6D7091",
"^  c #6656A5",
"/  c #675CA9",
"(  c #6E5EB0",
")  c #586AA3",
"_  c #5977A9",
"`  c #5E7AB4",
"'  c #6464A7",
"]  c #7165AD",
"[  c #6A6DB4",
"{  c #7368B8",
"}  c #6A7ABB",
"|  c #7C6DC4",
" . c #7E79CB",
".. c #8172CA",
"X. c #8D7EDA",
"o. c #897BD3",
"O. c #358085",
"+. c #438B9A",
"@. c #698E81",
"#. c #79AE8D",
"$. c #5695B8",
"%. c #6386BD",
"&. c #7D94AE",
"*. c #45B9B9",
"=. c #5C98C2",
"-. c #658AC2",
";. c #6993CC",
":. c #7B8CD4",
">. c #6A9DD2",
",. c #7995D6",
"<. c #58B3CA",
"1. c #5BA6C9",
"2. c #61A3CA",
"3. c #6BA7D9",
"4. c #6AB9D8",
"5. c #69B6E0",
"6. c #74BCEE",
"7. c #75B4E9",
"8. c #7BBCF2",
"9. c #7AA6E4",
"0. c #4FCDD2",
"q. c #5AD9E5",
"w. c #67C8E6",
"e. c #77C6F6",
"r. c #75CAF5",
"t. c #76CCF8",
"y. c #7ACBF6",
"u. c #6EDEFA",
"i. c #67DDF2",
"p. c #73D4FA",
"a. c #72DBFB",
"s. c #73C5EF",
"d. c #5EEAF2",
"f. c #5FFFFF",
"g. c #5DF4F7",
"h. c #5AE7ED",
"j. c #75E8E3",
"k. c #7CFDED",
"l. c #6DE5FD",
"z. c #6BECFF",
"x. c #66E9F8",
"c. c #70E2FE",
"v. c #6DFEF5",
"b. c #64F4FD",
"n. c #6BF3FD",
"m. c #62FCFE",
"M. c #6AFDF9",
"N. c #77FDF4",
"B. c #60E0E9",
"V. c #9B91BF",
"C. c #92CAB5",
"Z. c #FCFC97",
"A. c #FBFF9B",
"S. c #F6FF9E",
"D. c #D4D2A4",
"F. c #DAFBAD",
"G. c #C5FFBF",
"H. c #CDFEBA",
"J. c #D6FFB5",
"K. c #C8ECBD",
"L. c #E6FFA9",
"P. c #F9FFA3",
"I. c #E4FBB5",
"U. c #F9FFB5",
"Y. c #EDEBA4",
"T. c #8585D7",
"R. c #9081DE",
"E. c #8790DD",
"W. c #9586E5",
"Q. c #968BE8",
"!. c #8D98E9",
"~. c #9798E6",
"^. c #87A9EF",
"/. c #82B3F1",
"(. c #84BAF2",
"). c #8BACEF",
"_. c #9CD8CC",
"`. c #AEDFD9",
"'. c #99FEDA",
"]. c #95EACE",
"[. c #ADFECF",
"{. c #A9F4C8",
"}. c #BAFEC7",
"|. c #A8EED5",
" X c #A4FFD4",
".X c #ADFDD1",
"XX c #A8F6D4",
"oX c #BDFFD3",
"OX c #ACE4C8",
"+X c #88C7EA",
"@X c #86D3EA",
"#X c #8FD7ED",
"$X c #B2DFFA",
"%X c #95E5E3",
"&X c #8BFFE4",
"*X c #82FDEA",
"=X c #8CF5E6",
"-X c #96FFE1",
";X c #96FFFA",
":X c #8DF6F4",
">X c #B2F3E1",
",X c #C5FFC7",
"<X c #CDFFD8",
"1X c #F4FFC1",
"2X c #CCFFE1",
"3X c #D7FFE7",
"4X c #D6FFFF",
"5X c #C5F7F7",
"6X c #FEFFE3",
"7X c #FFFFEB",
"8X c #EBFCF9",
"9X c #F4FBFD",
"0X c #FDFFFD",
"qX c #F4FAFA",
"wX c #E1EFFC",
"eX c #D4CDF5",
/* pixels */
"                                                                                                    ",
"                                                                                                    ",
"                                                                                                    ",
"                                                                                                    ",
"                                                                                                    ",
"                                          E.@X4X7X0XU.n.                                            ",
"                                        4.4XU.:X&X*XoXU.1X*.                                        ",
"                                      t.;XP.|.B y y X.M.8XA.l.Q.                                    ",
"                                    <. X|.^ 5 q q w y u $.&X'.*Xm.u.  <.%X*X{.=X!                   ",
"                  {.[.v.g.a.R.  8.m.-Xm./ < & . . < < y y I l.m.f.f..X.XZ.Z.7X0X2Xm.                ",
"                J.7XqXI.F.[.v.y.m.'.j.| q & , Q ) % . & w r l | 3.q.0.h.q.d.x.|.0X,X'               ",
"            #.7X3X=X+X!.l.N.v.M.e.Q w < . c q.m.f.g.=.j . 3 q y y y u u y u z n C.7X_.              ",
"            S 0X=XW.H i r y y u t < = . K g.c.) H u.f.7.> . @ < < r r y r y y y b A.5X              ",
"            8XJ.:.c t 2 = < 2 = o o 6 -.a.%.8 . . v /.p.;.T s ; 2 o o o o < 2 q u &.1X(.            ",
"            4X[.Y r = X . . . . B ../.e.;.X . 7 t . . Q e.e.e.e.r.r.e.8.H 7 . < y y H.M.            ",
"            P.m.m < & E z.a.p.t.e.e.7.] s O , ^ | J + X ^ ] 2.$.;.w.s.z.z.:.# . 2 y j.k.R.          ",
"          k.G.!.y = 0 b.m.a.t.7. .E X . . Y u X X B Y H e . . . . + > B p.m.I . & r ' .Xl.          ",
"        s.k.*XJ 2 = p m.8.^ . . . . . X c u . . . . t ^ ^ W ^ W Y u . . 6.z.!.. @ r z d.n.          ",
"        m. X} y < o Q b.W . . . ; x M N f . @ 4 ; - @ . . . . . ; X.; . 8 p.t.b X 2 y [ m.t.P       ",
"      u.f.l.c r < . ,.p.. . . N ( t . . . & r 3 < r r r r r q . . 7 ^ . . ) c.6.6 = 1 r (.m.c.I     ",
"  <.-X Xz.9.r < o 9 y.{ . . . ..7 . - r q 7 7 X . . . . . @ t 1 . . K ; . 8 /.a.} , & w / =Xk.t.    ",
"4.L.}.).R u = . s 6.8., . . t B . X 2 X . . . = & = . . . . . r & . X b . . H y.e.R.h & t / M.F.a.  ",
"k.,X6.b r = o I p.e.3.+ . . i B . X # . . & & . . . & = < & . & e X . K u . . H a.r.>.X < r o.H.}...",
"L.oXJ y = & W z.a.` 7 . . c ^ d . w - . X . & & @ o . . . . @ . 5 & . d ^ ; . . J l.l.X o w y ' 0XK.",
"P.;XH y < . =.m.-.< . . X ..y . . y 1 . . & . . . o = < = = . . # u . ; ^ s . . 4 P m.% . = u b XXY.",
"-XoXH r 2 X T m.2.y X . . { ^ e . @ r . . . . . . . . . . . X # t e . . W.H . . - _ b.X . & r r [.9X",
"@X7X6.c r & . t.l.8.b . . 4 K K X . 4 = o e t r t q . . . = r r & . . . W.B . . h m.y.# . < r k {.8X",
"  L.y.b r = X Z e.l.3.# . . H Y X . 4 y 2 = . @ & y y = - k 2 . . . X D X.7 . . M l.>.X . < r k Z.wX",
"  C.L.1.u = X . ! t.8.u . . i ..7 . X O X . . X . . O # o O . . . 4 K ( l . . . _ r.Z . . < r ].,X,.",
"  $..Xx.u = X . M e.y.l . . . { z . . . . t M ^ ^ f X . . . . . # U ^ * . . . . ! l.h . X w r H.M.  ",
"    f.l.k r o . j e.c.' . . . Y | b , * D / K D K U ^ M a a : a W D ; . . . 8 8 w.m.* . . e y .X^.  ",
"    r.&XL w < . s e.b. .. . . . r i ..W.H X . . X * c / / ^ ..W.Y O . . Z !.u.f.n.Q.. . . w y *X    ",
"    2.&XQ r 3 X . 8.m.t.> . . . . . N P ; . . . . . . . s d T e 4 . . h !.a.m.c.:.B . . X w r k.    ",
"       Xy.y e < . W p.b.r.Q . . . . . . . . . X . . . . . . . . . . . %.8.:.R n . . . & < r y k.    ",
"      3Xm.N r = o . ) e.c.p.e...+ . . . . Z ..W.e.| P t . . . . . . g a.e.B X . . . o = < r y  X    ",
"      5XJ.` u r 3 @ . 9 x %.e.a.%.s . . C ^.y.e.e.e.e.e.-.%.V 6 * s -.n.^.e o o 1 < < 5 r r P <X    ",
"      OX0X_.H t r = = X . . u ,.g.e.:.| p.l.8.T u l | t.e.e.z.l.e.e.z.u.K X = r r y t s r M Z.eX    ",
"        7XP.%X~ F f i 3 3 < X 8 e.m.a.z.z.3.x . . . . O W { 5.u.x.b.i._ . = r z ,.@X+XT.~ D.qX@.    ",
"        +X,X6XqX=Xq.d.5.3.k w @ > ) t.:.[ : . & & & & & & . X > $ > > . & 3 B q.k.v.M.}.oX~.~.      ",
"          r.'.{.A..X'.f.f.u.L w . . . . . & < < < = < < = = o . . . . . < 3 5..X/.                  ",
"                    O.l.m.m.z.l < @ @ @ 3 q y g c b f r q q 3 < = @ @ & q i F.J.                    ",
"                          %Xf.=.r < = = r J  .e.f.f.m.e.) J y y w = < q r &.S.X.                    ",
"                          +.L.>XV f r f F @X&XXXu.0.u.f.f.p.) V z y u r F $X`.                      ",
"                            ~.2XqX].=XOX0XP.+X          l.f.m.m.x.' U ;.wX8X                        ",
"                              !.XX9X0XP.,XT.              o.&XXX}.A.P.0X9X#.                        ",
"                                                                                                    ",
"                                                                                                    ",
"                                                                                                    ",
"                                                                                                    ",
"                                                                                                    "
};
